<mxfile host="app.diagrams.net" modified="2023-11-09T20:09:43.374Z" agent="Mozilla/5.0 (Windows NT 10.0; Win64; x64) AppleWebKit/537.36 (KHTML, like Gecko) Chrome/116.0.0.0 Safari/537.36 OPR/102.0.0.0" version="22.1.0" etag="UfYOR_C5EzPL776l1lfx" type="github">
  <diagram name="PÃ¡gina-1" id="TZqEr8PieGHOvYz9TTjX">
    <mxGraphModel>
      <root>
        <mxCell id="0" />
        <mxCell id="1" parent="0" />
      </root>
    </mxGraphModel>
  </diagram>
</mxfile>
